<svg id="svg" version="1.1" xmlns="http://www.w3.org/2000/svg" xmlns:xlink="http://www.w3.org/1999/xlink" width="400" height="367.2131147540984" viewBox="0, 0, 400,367.2131147540984"><g id="svgg"><path id="path0" d="M260.435 53.642 C 255.029 54.215,254.209 54.988,251.592 61.973 C 233.491 110.288,168.917 111.278,151.116 63.513 L 147.912 54.918 129.128 54.458 L 110.345 53.999 70.680 99.168 C 48.865 124.011,30.663 145.257,30.231 146.382 C 29.289 148.837,84.535 209.836,87.701 209.836 C 88.917 209.836,95.149 203.197,101.550 195.082 C 107.952 186.967,113.655 180.328,114.225 180.328 C 115.222 180.328,114.543 208.067,111.535 290.164 C 110.564 316.671,110.661 329.338,111.847 330.770 C 113.661 332.962,291.308 331.926,293.746 329.710 C 294.363 329.148,294.235 315.779,293.461 300.000 C 289.755 224.418,288.040 180.267,288.781 179.525 C 289.230 179.076,295.106 185.528,301.840 193.863 C 308.573 202.197,314.962 209.016,316.037 209.016 C 317.924 209.016,373.747 147.779,373.763 145.691 C 373.772 144.446,299.827 61.378,294.053 56.148 C 289.932 52.414,279.410 51.630,260.435 53.642 M147.413 69.899 C 167.765 116.797,233.160 116.363,255.119 69.186 L 259.836 59.051 274.068 59.033 L 288.301 59.016 295.552 66.803 C 299.541 71.086,310.402 83.074,319.689 93.443 C 328.976 103.811,342.177 118.491,349.025 126.064 C 366.694 145.605,366.576 145.401,362.761 149.708 C 319.144 198.943,315.945 202.108,313.257 198.683 C 311.827 196.859,305.140 188.294,298.399 179.650 C 281.608 158.120,281.215 158.329,282.502 188.115 C 285.554 258.775,286.968 294.276,287.317 309.016 L 287.705 325.410 202.044 325.834 L 116.383 326.259 117.290 297.146 C 117.789 281.134,118.898 251.137,119.754 230.486 C 122.862 155.558,123.324 156.901,103.324 182.729 C 86.457 204.509,88.511 203.977,75.579 189.919 C 49.451 161.517,37.727 148.286,37.716 147.190 C 37.710 146.546,54.416 126.997,74.840 103.747 L 111.975 61.475 126.070 60.656 C 143.889 59.619,142.736 59.120,147.413 69.899 " stroke="none" fill="#000000" fill-rule="evenodd"></path></g></svg>